PathFileType	4	(X/Y/Z)	D:\TRACE\v60_Jaco2_6-2-23\JustArmDRS_Motion1_2-v60.trc
DataRate	CameraRate	NumFrames	NumMarkers	Units	OrigDataRate	OrigDataStartFrame	OrigNumFrames
100.00	100.00	      21	9	mm	100.00	5958	      6808
Frame#	Time	front left toe			Front right toe			aft left toe			aft right toe			Arm			FL body			FR body			AL Body			AR Body			
		X1	Y1	Z1	X2	Y2	Z2	X3	Y3	Z3	X4	Y4	Z4	X5	Y5	Z5	X6	Y6	Z6	X7	Y7	Z7	X8	Y8	Z8	X9	Y9	Z9	

5958	59.570	-150.19038	14.79635	-171.23077	257.43149	10.34606	-214.85074	-83.88129	28.96536	433.94934	318.84180	30.26023	422.88364	110.48569	1117.28711	-623.68787	-27.26648	574.24957	-320.17413	131.75024	571.78326	-336.06778	67.22330	598.78558	619.83075	223.30452	590.92493	606.31384	
5959	59.580	-150.15172	14.93237	-171.13431	257.45535	10.40083	-214.77759	-83.83817	28.78607	433.99402	318.84598	30.14970	422.90491	110.32330	1117.55078	-623.69904	-27.06774	574.25848	-320.08734	132.33760	571.86102	-335.76389	67.34283	598.81012	620.28418	223.57628	590.80341	606.41541	
5960	59.590	-150.12743	15.05342	-171.09389	257.44601	10.53025	-214.70578	-83.93647	28.67116	434.08856	318.82428	30.08237	422.97324	110.28510	1117.82043	-623.59644	-26.77439	574.26733	-319.94235	132.74763	571.88171	-335.64282	67.48251	598.76849	620.41693	223.69566	590.71356	606.49860	
5961	59.600	-150.19765	15.21307	-171.06279	257.40353	10.65847	-214.66560	-84.05415	28.52567	434.14490	318.75949	29.99913	423.06290	110.21046	1118.03381	-623.56573	-26.45140	574.29156	-319.91531	132.90459	571.95886	-335.57544	67.69360	598.71759	620.52936	223.90224	590.65314	606.63062	
5962	59.610	-150.28519	15.25498	-171.06836	257.28928	10.75110	-214.70073	-84.25970	28.36798	434.17899	318.61224	29.83245	423.13699	110.15736	1118.21130	-623.47931	-26.29728	574.42883	-319.87671	133.01990	572.05737	-335.55658	68.00257	598.59717	620.60999	224.13393	590.48749	606.72015	
5963	59.620	-150.52774	15.28389	-171.03641	257.13223	10.84089	-214.58438	-84.34347	28.13765	434.26288	318.30301	29.61494	423.25595	110.11920	1118.42102	-623.39807	-26.31166	574.55627	-319.83624	133.07289	572.13855	-335.55136	68.26929	598.46539	620.69739	224.38940	590.31390	606.58759	
5964	59.630	-150.87581	15.46991	-171.05043	257.01614	10.88318	-214.55066	-84.50461	27.94026	434.32867	318.11365	29.47488	423.32791	110.16923	1118.66016	-623.16553	-26.28584	574.70282	-319.75006	133.13011	572.20807	-335.54428	68.46645	598.34937	620.80896	224.51396	590.20105	606.62433	
5965	59.640	-151.19807	15.66733	-171.07896	256.82153	10.86855	-214.53987	-84.69125	27.75639	434.35699	317.68851	29.20589	423.35019	110.13331	1118.88257	-623.01520	-26.14184	574.81274	-319.62665	132.93965	572.19318	-335.19043	68.66592	598.13519	621.01196	224.59923	590.08710	606.63599	
5966	59.650	-151.47885	15.77734	-170.99269	256.48688	10.93888	-214.52017	-85.06177	27.74259	434.38635	317.26526	28.93097	423.35876	110.13438	1119.03418	-622.83862	-26.14960	574.96674	-319.54080	132.98338	572.23077	-335.07855	68.86442	597.88354	621.16107	224.67789	589.95337	606.67920	
5967	59.660	-151.75418	15.94133	-170.90428	256.18399	10.98964	-214.49602	-85.25610	27.60950	434.39514	316.90985	28.63690	423.35001	110.12677	1119.36353	-622.59430	-26.20206	575.10437	-319.38974	133.06091	572.31348	-334.91849	68.89060	597.71881	621.20654	224.84903	589.70123	606.75452	
5968	59.670	-151.97725	16.06734	-170.79187	255.84999	11.09916	-214.43430	-85.59099	27.55182	434.42001	316.85855	28.52887	423.35922	109.89133	1119.56604	-622.33990	-26.21023	575.18176	-319.22098	133.06865	572.41840	-334.86020	68.98360	597.53540	621.29279	225.03996	589.48273	606.82007	
5969	59.680	-152.27895	16.21795	-170.70152	255.42934	11.13736	-214.41029	-85.81068	27.52281	434.51602	316.69830	28.34240	423.36624	109.76981	1119.87512	-622.02100	-25.56241	575.12427	-318.70160	133.13667	572.85767	-335.20926	69.06164	597.37225	621.33899	225.01300	588.92816	607.16040	
5970	59.690	-152.55893	16.34899	-170.63466	255.12241	11.21305	-214.36217	-86.22500	27.39238	434.62772	316.39929	28.06839	423.40594	109.65579	1120.14063	-621.73572	-26.23281	575.27637	-318.91251	133.03922	572.97534	-335.14017	68.76190	597.16138	621.14587	225.21761	588.85394	607.30066	
5971	59.700	-152.78912	16.44349	-170.58514	254.97841	11.32132	-214.19580	-86.50563	27.28710	434.68423	316.08389	27.89665	423.49908	109.38472	1120.38037	-621.56702	-26.30246	575.37305	-318.73254	132.93166	572.98706	-335.01901	68.89162	596.92896	621.35126	225.18817	588.74121	607.38538	
5972	59.710	-152.89552	16.35269	-170.54834	254.67664	11.46071	-214.04855	-88.20743	28.11555	434.37582	315.75201	27.73635	423.56750	109.06094	1120.82886	-621.19995	-26.58798	575.55646	-318.44952	133.39404	573.17499	-335.29449	69.17059	596.71179	621.78876	225.03583	588.37537	607.42120	
5973	59.720	-153.37878	16.50453	-170.39665	254.17789	11.57803	-214.00053	-88.67490	27.87555	434.32922	315.47617	27.61494	423.63788	108.92583	1120.95142	-620.89142	-26.81014	575.58435	-318.34067	133.19356	573.21783	-335.14569	69.17764	596.51086	621.92767	225.43102	588.66003	607.76379	
5974	59.730	-153.91248	16.68915	-170.28435	253.85927	11.76108	-213.99258	-88.92509	27.48141	434.50446	314.62897	27.19835	423.79626	108.86609	1121.02930	-620.56696	-26.96964	575.68878	-318.24948	132.92236	573.28284	-334.98578	69.12607	596.38593	622.00836	225.80418	588.44666	607.65948	
5975	59.740	-154.49837	16.98798	-170.08289	253.48979	11.80778	-213.92090	-89.20913	27.39821	434.64700	314.20908	26.96393	423.78641	108.76484	1121.09851	-620.22882	-27.01946	575.67609	-318.14822	132.72639	573.35712	-334.80408	69.10387	596.19739	622.24530	225.26367	588.12213	607.76099	
5976	59.750	-154.94521	17.11384	-170.05925	253.13197	11.77693	-213.95580	-89.50361	27.24805	434.81635	313.90579	26.78797	423.84113	108.60970	1121.21155	-619.88104	-27.12074	575.71118	-318.01431	132.55914	573.51019	-334.48489	69.05766	596.01849	622.43823	225.23326	587.92657	607.86163	
5977	59.760	-155.28500	17.13858	-170.01140	252.58058	11.87508	-213.93649	-89.80108	26.92022	435.07916	313.74493	26.75828	423.89825	108.42518	1121.43359	-619.63165	-27.49019	575.87653	-317.78857	131.74870	573.43958	-333.69531	69.09438	595.87463	622.62860	225.17436	587.81030	608.04486	
5978	59.770	-155.35936	17.10965	-170.01161	251.97134	12.05639	-213.78323	-90.36499	26.85671	435.22534	313.53110	26.61964	424.02307	108.10950	1121.58508	-619.41534	-27.98545	576.04718	-317.51114	131.42972	573.46460	-333.41931	68.98695	595.70752	622.73956	225.07191	587.56616	608.21442	
